<?xml version="1.0" encoding="UTF-8"?>
<svg xmlns="http://www.w3.org/2000/svg" width="361" height="75" viewBox="0 0 361 75">
  <g fill="none" transform="translate(.636 .468)">
    <path fill="#004878" d="M-5.68434189e-14 72.732L9.956 72.732 9.956 53.58C11.476 55.1506667 13.3253333 56.354 15.504 57.19 17.6826667 58.026 20.0386667 58.444 22.572 58.444 26.5746667 58.444 30.1466667 57.494 33.288 55.594 36.4293333 53.694 38.912 51.11 40.736 47.842 42.56 44.574 43.472 40.9133333 43.472 36.86 43.472 32.8066667 42.56 29.146 40.736 25.878 38.912 22.61 36.4293333 20.026 33.288 18.126 30.1466667 16.226 26.6 15.276 22.648 15.276 19.8106667 15.276 17.252 15.7826667 14.972 16.796 12.692 17.8093333 10.8173333 19.228 9.348 21.052L9.348 16.188-5.68434189e-14 16.188-5.68434189e-14 72.732zM21.432 49.324C19.2533333 49.324 17.29 48.792 15.542 47.728 13.794 46.664 12.426 45.1946667 11.438 43.32 10.45 41.4453333 9.956 39.292 9.956 36.86 9.956 34.428 10.45 32.2746667 11.438 30.4 12.426 28.5253333 13.794 27.056 15.542 25.992 17.29 24.928 19.2533333 24.396 21.432 24.396 23.712 24.396 25.726 24.9406667 27.474 26.03 29.222 27.1193333 30.6026667 28.6013333 31.616 30.476 32.6293333 32.3506667 33.136 34.4786667 33.136 36.86 33.136 39.2413333 32.6293333 41.382 31.616 43.282 30.6026667 45.182 29.222 46.664 27.474 47.728 25.726 48.792 23.712 49.324 21.432 49.324zM72.088 58.444C76.0906667 58.444 79.7386667 57.5193333 83.032 55.67 86.3253333 53.8206667 88.96 51.262 90.936 47.994 92.912 44.726 93.9 41.0146667 93.9 36.86 93.9 32.7053333 92.9246667 29.0066667 90.974 25.764 89.0233333 22.5213333 86.4013333 19.9626667 83.108 18.088 79.8146667 16.2133333 76.1413333 15.276 72.088 15.276 67.984 15.276 64.2853333 16.2133333 60.992 18.088 57.6986667 19.9626667 55.0766667 22.5213333 53.126 25.764 51.1753333 29.0066667 50.2 32.7053333 50.2 36.86 50.2 41.0146667 51.1753333 44.7133333 53.126 47.956 55.0766667 51.1986667 57.7113333 53.7573333 61.03 55.632 64.3486667 57.5066667 68.0346667 58.444 72.088 58.444zM72.088 49.324C69.8586667 49.324 67.87 48.792 66.122 47.728 64.374 46.664 63.006 45.182 62.018 43.282 61.03 41.382 60.536 39.2413333 60.536 36.86 60.536 34.4786667 61.03 32.3506667 62.018 30.476 63.006 28.6013333 64.374 27.1193333 66.122 26.03 67.87 24.9406667 69.8586667 24.396 72.088 24.396 74.3173333 24.396 76.2806667 24.9406667 77.978 26.03 79.6753333 27.1193333 81.018 28.6013333 82.006 30.476 82.994 32.3506667 83.488 34.4786667 83.488 36.86 83.488 39.2413333 82.994 41.382 82.006 43.282 81.018 45.182 79.6753333 46.664 77.978 47.728 76.2806667 48.792 74.3173333 49.324 72.088 49.324z"></path>
    <polygon fill="#004878" points="102.224 57.532 112.18 57.532 112.18 0 102.224 0"></polygon>
    <path fill="#004878" d="M122.176,11.552 L132.132,11.552 L132.132,0.912 L122.176,0.912 L122.176,11.552 Z M122.176,57.532 L132.132,57.532 L132.132,16.188 L122.176,16.188 L122.176,57.532 Z"></path>
    <polygon fill="#004878" points="152.54 57.532 161.356 57.532 171.084 29.64 180.66 57.532 189.552 57.532 203.764 16.188 193.276 16.188 184.612 42.18 175.492 16.188 166.676 16.188 157.48 42.256 148.816 16.188 138.328 16.188"></polygon>
    <path fill="#004878" d="M221.056 58.444C226.426667 58.444 230.733333 56.6706667 233.976 53.124L233.976 57.532 243.4 57.532 243.4 30.02C243.4 27.132 242.665333 24.5733333 241.196 22.344 239.726667 20.1146667 237.712667 18.3793333 235.154 17.138 232.595333 15.8966667 229.618667 15.276 226.224 15.276 222.069333 15.276 218.370667 16.264 215.128 18.24 211.885333 20.216 209.656 22.8253333 208.44 26.068L216.572 30.02C217.332 28.1453333 218.522667 26.638 220.144 25.498 221.765333 24.358 223.665333 23.788 225.844 23.788 228.124 23.788 229.960667 24.3833333 231.354 25.574 232.747333 26.7646667 233.444 28.2466667 233.444 30.02L233.444 31.388 221.132 33.364C216.268 34.1746667 212.670667 35.72 210.34 38 208.009333 40.28 206.844 43.1426667 206.844 46.588 206.844 50.236 208.136 53.124 210.72 55.252 213.304 57.38 216.749333 58.444 221.056 58.444zM217.18 46.208C217.18 43.32 219.130667 41.496 223.032 40.736L233.444 38.988 233.444 40.66C233.444 43.4973333 232.468667 45.904 230.518 47.88 228.567333 49.856 226.021333 50.844 222.88 50.844 221.208 50.844 219.84 50.426 218.776 49.59 217.712 48.754 217.18 47.6266667 217.18 46.208zM253.396 57.532L263.352 57.532 263.352 33.288C263.352 30.6026667 264.124667 28.4493333 265.67 26.828 267.215333 25.2066667 269.229333 24.396 271.712 24.396 274.194667 24.396 276.208667 25.194 277.754 26.79 279.299333 28.386 280.072 30.552 280.072 33.288L280.072 57.532 290.028 57.532 290.028 30.932C290.028 27.8413333 289.369333 25.118 288.052 22.762 286.734667 20.406 284.898 18.5693333 282.542 17.252 280.186 15.9346667 277.488 15.276 274.448 15.276 271.864 15.276 269.546 15.7826667 267.494 16.796 265.442 17.8093333 263.858667 19.304 262.744 21.28L262.744 16.188 253.396 16.188 253.396 57.532zM319.328 74.252C323.28 74.252 326.776 73.4413333 329.816 71.82 332.856 70.1986667 335.237333 67.9693333 336.96 65.132 338.682667 62.2946667 339.544 59.0773333 339.544 55.48L339.544 16.188 330.12 16.188 330.12 20.976C326.978667 17.176 322.748 15.276 317.428 15.276 313.628 15.276 310.233333 16.15 307.244 17.898 304.254667 19.646 301.898667 22.04 300.176 25.08 298.453333 28.12 297.592 31.5906667 297.592 35.492 297.592 39.3426667 298.453333 42.8133333 300.176 45.904 301.898667 48.9946667 304.28 51.4266667 307.32 53.2 310.36 54.9733333 313.805333 55.86 317.656 55.86 322.672 55.86 326.649333 54.2386667 329.588 50.996L329.588 55.48C329.588 58.52 328.625333 60.8886667 326.7 62.586 324.774667 64.2833333 322.317333 65.132 319.328 65.132 316.693333 65.132 314.476667 64.5366667 312.678 63.346 310.879333 62.1553333 309.676 60.5973333 309.068 58.672L299.796 62.168C301.113333 65.816 303.532667 68.742 307.054 70.946 310.575333 73.15 314.666667 74.252 319.328 74.252zM318.872 46.664C315.68 46.664 313.058 45.6126667 311.006 43.51 308.954 41.4073333 307.928 38.76 307.928 35.568 307.928 33.44 308.396667 31.5273333 309.334 29.83 310.271333 28.1326667 311.576 26.8026667 313.248 25.84 314.92 24.8773333 316.794667 24.396 318.872 24.396 322.013333 24.396 324.584667 25.4473333 326.586 27.55 328.587333 29.6526667 329.588 32.3253333 329.588 35.568 329.588 38.8106667 328.587333 41.4706667 326.586 43.548 324.584667 45.6253333 322.013333 46.664 318.872 46.664z"></path>
    <polygon fill="#CC3301" points="349.616 11.552 359.572 11.552 359.572 .912 349.616 .912"></polygon>
    <polygon fill="#004878" points="349.616 57.532 359.572 57.532 359.572 16.188 349.616 16.188"></polygon>
  </g>
</svg>
